<svg width="103" height="75" viewBox="0 0 103 75" fill="none" xmlns="http://www.w3.org/2000/svg">
<g clip-path="url(#clip0_5595_15787)">
<path d="M64.3497 22.8274C64.3497 22.8274 63.0669 25.7644 61.5938 27.7816C61.5938 27.7816 63.251 24.115 64.3497 22.8274Z" fill="#EAEAEA"/>
<path d="M74.9627 18.3392V18.1553C74.9627 18.1553 74.5944 18.1553 74.4102 18.1553C74.2261 18.1553 73.8578 18.1553 73.6737 17.9713C73.4895 17.7874 73.1213 18.1553 73.1213 18.1553C73.1213 18.1553 73.1213 17.7874 72.753 18.1553C72.3847 18.5231 72.0164 17.7874 72.0164 17.7874C72.0164 17.7874 72.0164 18.3392 71.464 18.1553C70.9116 17.9713 70.7275 18.5231 70.3653 18.3392C69.997 18.1553 69.997 18.7071 69.6288 18.7071C69.2605 18.7071 69.2605 19.075 68.8922 19.075C68.5239 19.075 68.7081 19.6268 68.3398 19.6268C67.9715 19.6268 67.7874 20.1786 67.7874 20.1786C67.7874 20.1786 67.6032 19.9947 67.235 20.3626C67.0017 20.5956 67.0631 20.6814 67.1429 20.7121C66.6457 20.6753 66.2959 21.6502 65.9521 21.6502C65.5839 21.6502 66.5045 20.7305 66.8728 20.5527C67.2411 20.3687 67.4252 19.8169 67.4252 19.8169C67.4252 19.8169 67.2411 19.449 67.2411 19.265C67.2411 19.0811 67.6094 19.265 67.7935 19.265C67.9777 19.265 68.3459 18.1675 68.3459 18.1675C68.3459 18.1675 68.3459 17.9836 67.9777 17.9836C67.6094 17.9836 68.7142 17.2478 68.7142 17.2478C68.7142 17.2478 68.7142 16.8799 68.5301 17.0639C68.3459 17.2478 68.5301 16.696 68.8984 16.3281C69.2666 15.9602 68.8984 16.1441 68.7142 16.1441C68.5301 16.1441 69.2666 15.7762 69.2666 15.2244C69.2666 14.6726 68.8984 15.2244 68.7142 15.2244C68.5301 15.2244 69.4508 14.4886 69.2666 14.3047C69.1746 14.2127 69.1316 14.2127 69.107 14.2373L69.2666 13.7529C69.2666 13.7529 69.2666 13.385 69.0825 13.385C68.8984 13.385 69.0825 13.201 69.2666 12.6492C69.4508 12.0974 69.2666 12.2813 68.8984 12.2813C68.5301 12.2813 69.2666 11.5455 68.8984 11.5455C68.5301 11.5455 69.0825 10.8098 69.0825 10.448C69.0825 10.0863 68.5301 10.632 68.5301 10.632C68.5301 10.632 68.7142 9.53442 68.5301 9.53442C68.3459 9.53442 68.1618 9.16654 68.1618 8.79865C68.1618 8.43076 67.9777 8.6147 67.9777 8.6147C67.9777 8.6147 67.9777 8.43076 67.7935 8.24682C67.6094 8.06287 67.057 6.7814 67.057 6.41351C67.057 6.04562 66.8728 6.96534 66.8728 6.96534H66.6887C66.6887 6.96534 66.5045 7.51717 66.3204 7.51717C66.1363 7.51717 66.3204 8.06901 65.9521 7.88506C65.5961 7.70725 65.7557 8.55339 65.768 8.44916C65.7619 8.6147 65.7373 9.35661 65.5839 9.35661C65.3997 9.35661 65.5839 10.0924 65.5839 10.0924C65.5839 10.0924 65.3997 10.0924 65.2156 10.0924C65.0314 10.0924 65.5839 11.0121 65.5839 11.0121C65.5839 11.0121 65.3997 10.8282 65.3997 11.196C65.3997 11.5639 65.3997 11.9318 65.2156 11.9318C65.0314 11.9318 65.3997 12.4837 65.3997 12.6676C65.3997 12.8515 65.3997 12.8515 65.2156 12.8515C65.0314 12.8515 65.3997 13.2194 65.3997 13.4034C65.3997 13.5873 65.3997 13.7713 65.2156 13.7713C65.0314 13.7713 65.2156 14.1391 65.3997 14.691C65.5839 15.2428 65.3997 14.8749 65.2156 14.8749C65.0314 14.8749 65.5839 15.7946 65.5839 15.7946C65.5839 15.7946 65.5839 15.9786 65.2156 15.9786C64.8473 15.9786 65.9521 16.8983 65.5839 17.0761C65.2156 17.2601 65.768 18.1736 65.768 18.1736C65.768 18.1736 65.9521 18.5415 65.9521 18.7255C65.9521 18.9094 65.5839 18.7255 65.5839 18.7255V21.4785L65.2156 18.5415C65.2156 18.5415 65.3997 18.1736 65.0314 18.1736C64.6632 18.1736 65.3997 16.8922 64.8473 16.8922C64.2949 16.8922 64.479 15.7946 64.6632 15.4268C64.8473 15.0589 64.479 15.2428 64.1107 15.2428C63.7425 15.2428 63.9266 14.8749 63.9266 14.3231C63.9266 13.7713 63.7425 13.9552 63.3742 13.9552C63.0059 13.9552 63.3742 13.0355 63.3742 12.6737C63.3742 12.3058 63.1901 12.6737 62.8218 12.4898C62.4535 12.3058 62.4535 11.5701 62.0852 11.5701C61.7169 11.5701 61.7169 10.6503 61.3487 10.6503C60.9804 10.6503 60.6121 10.0985 60.6121 9.73063C60.6121 9.36274 60.2438 9.54669 59.8756 9.54669C59.5073 9.54669 59.8756 8.99485 59.5073 8.62697C59.139 8.25908 59.3231 8.44302 58.9549 8.44302C58.5866 8.44302 58.4025 7.70725 58.0342 7.5233C57.6659 7.33936 57.85 7.5233 57.6659 7.70725C57.4818 7.89119 56.9293 6.97147 56.7452 6.97147C56.5611 6.97147 56.3769 6.97147 56.1928 6.60359C56.0087 6.2357 55.6404 6.2357 55.2721 6.41964C54.9038 6.60359 55.088 6.41964 54.9038 6.41964C54.7197 6.41964 54.3514 6.05175 53.8051 6.05175C53.2588 6.05175 50.687 4.95422 50.687 4.95422L52.7064 6.2357C52.7064 6.2357 52.7064 6.2357 53.2588 6.78753C53.8113 7.33936 53.443 7.15542 53.0747 7.15542C52.7064 7.15542 53.8113 7.70725 54.1734 8.07514C54.5417 8.44302 53.9893 8.25908 53.9893 8.25908L54.91 8.81091C54.91 8.81091 54.91 8.81091 54.5417 8.99485C54.1734 9.1788 55.0941 9.54669 55.4624 9.91457C55.8306 10.2825 55.4624 10.0985 55.2782 10.0985C55.0941 10.0985 56.5611 10.8343 56.5611 10.8343C56.5611 10.8343 56.5611 10.8343 56.1928 11.0182C55.8245 11.2022 57.4756 11.938 57.4756 11.938C57.4756 11.938 57.4756 11.938 57.1073 12.1219C56.7391 12.3058 58.206 12.8577 58.3902 12.8577C58.5743 12.8577 58.206 13.2256 58.0219 13.2256C57.8378 13.2256 59.3047 13.9613 59.3047 13.9613C59.3047 13.9613 59.3047 13.9613 59.1206 14.3292C58.9365 14.6971 60.2193 15.065 60.2193 15.2489C60.2193 15.4329 60.2193 15.2489 60.0351 15.4329C59.851 15.6168 61.1338 16.5304 61.1338 16.5304C61.1338 16.5304 60.9497 16.5304 60.7656 16.5304C60.5814 16.5304 61.8643 17.2662 61.8643 17.2662C61.8643 17.2662 61.8643 17.4501 61.8643 17.818C61.8643 18.1859 63.1471 18.7377 63.1471 18.7377C63.1471 18.7377 63.1471 18.9217 62.7788 18.9217C62.4105 18.9217 64.2458 20.3871 64.0616 20.571C63.8775 20.755 62.7788 19.6513 62.5947 19.6513C62.4105 19.6513 62.4105 19.8353 62.2264 19.8353C62.0423 19.8353 61.4898 18.7377 61.1277 18.7377C60.7594 18.7377 60.9436 18.9217 60.7594 18.9217C60.5753 18.9217 60.0229 18.002 59.8387 18.002C59.6546 18.002 59.6546 18.1859 59.4705 18.1859C59.2863 18.1859 58.3718 17.2662 58.3718 17.4501C58.3718 17.6341 58.0035 17.818 57.6352 17.4501C57.2669 17.0822 56.8987 17.0822 56.8987 17.0822C56.8987 17.0822 57.0828 17.2662 56.7145 17.0822C56.3462 16.8983 55.6158 16.8983 55.6158 16.8983L55.4317 17.0822C55.4317 17.0822 54.511 16.5304 54.333 16.5304C54.155 16.5304 54.1489 16.5304 54.1489 16.7144C54.1489 16.8983 52.6819 16.3465 52.6819 16.3465C52.6819 16.3465 52.6819 16.7144 52.4977 16.7144C52.3136 16.7144 51.2149 16.1625 51.0308 16.3465C50.8466 16.5304 51.0308 16.5304 51.0308 16.5304C51.0308 16.5304 50.1101 16.5304 49.7479 16.5304C49.3797 16.5304 49.3797 16.7144 49.3797 16.7144C49.3797 16.7144 48.8272 16.7144 48.281 16.5304C47.7347 16.3465 47.9127 16.8983 47.9127 16.8983C47.9127 16.8983 46.814 16.8983 46.6299 16.8983C46.4457 16.8983 46.4457 17.2662 46.2616 17.2662C46.0774 17.2662 45.525 17.4501 45.1629 17.6341C44.7946 17.818 44.4263 18.002 43.5118 18.002C42.5911 18.002 42.4131 18.3699 42.4131 18.3699C42.5972 18.5538 44.9849 18.5538 44.9849 18.5538V18.7377H45.9056V19.1056C45.9056 19.1056 46.6421 19.2896 47.0043 19.1056C47.3726 18.9217 47.1884 19.1056 47.3726 19.2896C47.5567 19.4735 48.1091 19.2896 48.4712 19.2896C48.8395 19.2896 48.2871 19.6575 48.2871 19.6575C48.2871 19.6575 49.3858 19.6575 49.7541 19.6575C50.1224 19.6575 49.7541 19.6575 49.7541 20.0254C49.7541 20.3932 51.221 19.8414 51.221 19.8414C51.221 19.8414 51.221 20.0254 51.221 20.2093C51.221 20.3932 52.3197 20.0254 52.688 20.0254C53.0563 20.0254 52.3197 20.0254 52.688 20.3932C53.0563 20.7611 53.9708 20.2093 54.155 20.2093C54.3391 20.2093 53.9708 20.3932 53.9708 20.5772C53.9708 20.7611 55.0695 20.5772 55.4378 20.5772C55.8061 20.5772 55.4378 20.7611 55.4378 20.9451C55.4378 21.129 56.7207 20.5772 56.7207 20.5772C56.7207 20.5772 56.7207 20.5772 56.9048 20.9451C57.0889 21.313 58.3718 20.5772 58.1876 20.9451C58.0035 21.313 59.1083 21.129 59.2863 21.129C59.4643 21.129 59.6546 21.129 59.6546 21.313C59.6546 21.4969 61.1216 21.313 61.4898 21.313C61.8581 21.313 61.674 21.4969 61.674 21.6808C61.674 21.8648 63.6934 21.6808 64.0616 21.6808C64.4299 21.6808 64.6141 21.8648 64.4299 21.8648C64.2458 21.8648 63.8775 22.0487 63.6934 21.8648C63.5092 21.6808 63.3251 21.8648 63.1409 22.0487C62.9568 22.2327 62.9568 22.0487 62.9568 22.0487C62.9568 22.0487 62.5885 22.0487 62.2203 21.8648C61.852 21.6808 61.852 21.8648 61.4837 21.8648C61.1154 21.8648 61.2996 22.0487 61.2996 22.0487C61.2996 22.0487 60.9313 22.0487 60.7472 21.8648C60.563 21.6808 60.3789 22.0487 60.1947 22.0487C60.0106 22.0487 60.1947 22.0487 59.8265 21.8648C59.4582 21.6808 59.8265 22.0487 59.274 22.0487C58.7216 22.0487 58.7216 22.4166 58.7216 22.4166C58.7216 22.4166 58.1692 22.4166 57.9851 22.4166C57.8009 22.4166 57.8009 22.6006 57.8009 22.6006C57.8009 22.6006 57.4327 22.6006 57.0644 22.6006C56.6961 22.6006 57.0644 22.9684 57.0644 22.9684C57.0644 22.9684 56.512 23.1524 56.3278 22.9684C56.1437 22.7845 55.9595 23.3363 55.7754 23.3363C55.5913 23.3363 55.5913 23.7042 55.223 23.7042C54.8547 23.7042 55.223 23.7042 55.0389 24.0721C54.8547 24.44 54.6706 24.2561 54.4864 24.2561C54.3023 24.2561 54.1182 24.6239 53.934 24.6239C53.7499 24.6239 53.5657 24.8079 53.3816 25.3597C53.1975 25.9116 51.7305 26.4573 51.7305 26.4573H52.8292L53.1975 26.2733C53.1975 26.2733 53.3816 26.2733 53.3816 26.4573C53.3816 26.6412 53.7499 26.4573 54.3023 26.2733C54.8547 26.0894 54.4864 26.2733 54.6706 26.2733C54.8547 26.2733 54.8547 26.2733 55.0389 26.0894C55.223 25.9054 55.0389 26.0894 55.223 26.2733C55.4071 26.4573 55.7754 25.9054 55.9595 25.9054C56.1437 25.9054 56.1437 26.0894 56.3278 26.0894C56.512 26.0894 56.6961 25.7215 57.0644 25.5375C57.4327 25.3536 57.0644 25.9054 57.2485 25.9054C57.4327 25.9054 57.6168 25.3536 57.6168 25.3536C57.6168 25.3536 57.9851 25.3536 58.1692 25.3536C58.3533 25.3536 58.5375 25.1696 58.7216 25.1696C58.9058 25.1696 58.7216 25.3536 58.9058 25.3536C59.0899 25.3536 59.274 24.9857 59.4582 24.9857C59.6423 24.9857 59.6423 24.9857 59.8265 24.9857C60.0106 24.9857 60.1947 24.6178 60.3789 24.4339C60.563 24.2499 60.563 24.8018 60.563 24.8018C60.563 24.8018 60.9313 24.066 61.1154 24.066C61.2996 24.066 61.2996 24.4339 61.2996 24.4339L62.0361 23.882C62.0361 23.882 62.4044 23.882 62.5885 23.6981C62.7727 23.5142 62.7727 23.5142 62.9568 23.3302C63.1409 23.1463 63.3251 23.3302 63.3251 23.3302C63.6934 23.1463 64.6079 22.5944 64.6079 22.5944C64.6079 22.5944 64.1476 23.0543 63.9634 23.4222C63.7793 23.7901 63.9634 23.974 63.411 23.974C62.8586 23.974 63.0427 24.5258 63.0427 24.5258L62.8586 24.8937C62.8586 24.8937 62.4903 25.2616 62.4903 25.4456C62.4903 25.6295 62.4903 25.4456 62.122 25.8134C61.7538 26.1813 62.122 26.7332 62.122 26.7332C62.122 26.7332 61.5696 27.1011 61.5696 27.6529C61.5696 28.2047 61.0172 28.9344 61.0172 28.9344C61.0172 28.9344 61.9379 28.0146 62.3001 28.0146C62.6683 28.0146 62.6683 27.6468 62.6683 27.2789C62.6683 26.911 63.589 26.727 63.589 26.3591C63.589 25.9913 63.589 26.1752 63.7732 26.1752C63.9573 26.1752 63.9573 25.8073 63.7732 25.6234C63.589 25.4394 64.1414 25.2555 64.3256 25.2555C64.5097 25.2555 64.5097 24.8876 64.5097 24.8876V24.3358C64.5097 24.3358 64.6939 24.3358 64.6939 23.9679C64.6939 23.6 64.6939 23.416 64.6939 23.416L64.878 23.2321V22.8642C64.878 22.8642 65.0621 22.4963 65.2463 22.4963C65.4304 22.4963 66.167 26.3469 66.167 26.3469H66.9035L65.8048 22.3124L65.946 22.5883C67.2472 22.6374 69.9357 24.7895 69.9357 24.7895C68.438 23.7901 66.3388 22.7968 65.9583 22.619L65.989 22.6803C65.989 22.6803 66.7255 23.0482 66.9097 23.2321C67.0938 23.416 67.2779 23.9679 67.2779 23.9679L68.0145 24.1518C68.0145 24.1518 68.1986 24.5197 68.3828 24.5197C68.5669 24.5197 68.5669 24.7037 68.5669 24.7037C68.5669 24.7037 68.9352 24.7037 69.3035 24.8876C69.6717 25.0715 69.6717 25.2555 69.6717 25.2555L69.8559 25.0715L69.9479 25.1635C70.3162 24.9796 70.8686 25.3475 70.8686 25.3475C70.8686 25.3475 70.8686 25.1635 70.6845 25.1635C70.5004 25.1635 70.1321 24.4277 69.9479 24.2438C69.7638 24.0598 69.9479 23.8759 69.5797 23.692C69.2114 23.508 69.3955 23.508 69.3955 23.3241C69.3955 23.1401 69.2114 23.3241 68.8431 23.1401C68.4748 22.9562 68.8431 22.9562 68.8431 22.9562C68.8431 22.9562 68.4748 22.9562 68.1066 22.7722C67.7383 22.5883 67.9224 22.5883 67.9224 22.5883H67.37C67.37 22.5883 67.1859 22.4044 66.6334 22.4044C66.081 22.4044 66.4493 22.2204 66.2652 22.0365C66.081 21.8525 67.548 22.2204 67.548 22.2204V21.8525L68.6467 22.0365L68.4626 21.6686L69.3833 21.8525C69.3833 21.8525 69.3833 21.8525 69.3833 21.6686C69.3833 21.4846 70.3039 21.8525 70.3039 21.8525L69.9357 21.4846H70.8564L70.6722 21.3007C70.6722 21.3007 71.4088 21.4846 71.5929 21.4846C71.7771 21.4846 71.5929 21.1167 71.5929 21.1167H72.3295C72.3295 21.1167 72.5136 21.1167 72.3295 20.7489C72.1453 20.381 73.2502 20.9328 73.2502 20.9328L72.8819 20.7489H73.6184L73.8026 20.381C73.8026 20.381 74.1709 20.381 74.355 20.381C74.5391 20.381 74.355 20.0131 74.355 20.0131H74.9074C74.9074 20.0131 74.9074 19.8291 74.5391 19.6452C74.1709 19.4613 75.2757 19.8291 75.2757 19.8291C75.2757 19.8291 75.0915 19.2773 75.2757 19.2773C75.4598 19.2773 75.4598 19.2773 75.4598 18.9094C75.4598 18.5415 76.3805 18.3576 76.3805 18.3576H74.9627V18.3392ZM67.1613 7.79309C67.1613 7.79309 68.26 16.7757 66.0626 20.6324C66.0626 20.6324 67.1613 14.7646 67.1613 7.79309ZM44.856 18.1553C56.0516 16.8738 63.945 21.27 63.945 21.27C55.3212 18.1553 44.856 18.1553 44.856 18.1553ZM53.3018 26.0403C56.9723 23.1033 64.1353 22.5576 64.1353 22.5576C58.8076 23.4712 53.3018 26.0403 53.3018 26.0403ZM53.6701 6.60359C53.6701 6.60359 63.0305 11.7356 65.0499 20.9083C65.0499 20.9021 62.3001 12.4714 53.6701 6.60359ZM66.1424 21.5643C66.1424 21.5643 70.5556 19.4367 74.9627 18.701C74.9627 18.7071 67.235 21.4969 66.1424 21.5643Z" fill="#60B600"/>
<path d="M11.1405 45.1398C9.79633 45.4893 8.69764 45.8265 7.86288 46.1392C7.70943 46.1883 7.58053 46.1699 7.45777 46.0963C7.39639 46.0595 7.34729 46.0105 7.31046 45.9553C7.10177 46.1147 6.90536 46.2741 6.72735 46.4397C6.61073 46.5623 6.56777 46.6911 6.59846 46.8321C6.62915 46.9731 6.7028 47.0835 6.81942 47.157C6.93605 47.2368 7.07108 47.249 7.22453 47.2C8.06543 46.8873 9.15798 46.55 10.5022 46.2005C11.8403 45.851 13.209 45.6365 14.6208 45.5506C14.8786 45.1827 15.1057 44.8271 15.2898 44.4837C13.8719 44.5696 12.4909 44.7842 11.1405 45.1398Z" fill="#60B600"/>
<path d="M15.9154 35.1332C15.7926 34.7838 15.6085 34.281 15.3691 33.631C15.142 32.9014 15.1727 31.951 15.4673 30.7799C13.362 30.5101 11.3733 31.3992 9.50733 33.4532C8.42705 34.6366 7.48794 35.9549 6.67773 37.3958C7.3345 36.3657 8.06491 35.403 8.86898 34.514C10.7349 32.4599 12.7236 31.5709 14.8289 31.8407C14.5343 33.0118 14.4975 33.9683 14.7307 34.6918C14.9701 35.3417 15.1542 35.8384 15.277 36.194C15.3445 36.3534 15.4611 36.427 15.6085 36.4209C15.7619 36.4147 15.8663 36.3289 15.9338 36.1756C16.0074 35.9181 16.0872 35.6422 16.1793 35.354C16.0627 35.3356 15.9706 35.262 15.9154 35.1332Z" fill="#60B600"/>
<path d="M19.8318 27.3892C19.8994 27.3034 19.9301 27.1746 19.9301 27.0152C19.6723 27.3831 19.4145 27.7939 19.1689 28.2538C19.3838 27.9349 19.6047 27.6406 19.8318 27.3892Z" fill="#60B600"/>
<path d="M19.6355 45.6242C18.8682 44.9559 17.8678 44.5818 16.6463 44.5083C16.4622 44.8455 16.2535 45.2011 16.0264 45.5751C17.432 45.6671 18.5368 46.1454 19.3347 47.016C19.525 47.2 19.66 47.1509 19.7521 46.8627C19.8442 46.5807 19.8073 46.176 19.6539 45.661C19.6478 45.6487 19.6416 45.6365 19.6355 45.6242Z" fill="#60B600"/>
<path d="M14.5961 47.7273C13.7491 48.9229 12.7056 50.0204 11.4658 51.0199C10.2259 52.0193 8.74665 52.657 7.02803 52.9329C4.42553 53.3498 2.65167 52.8041 1.70642 51.2897C0.761176 49.7752 0.448141 47.7886 0.755038 45.3299C1.06194 42.8589 1.83532 40.3205 3.06905 37.7085C3.38822 37.034 3.72581 36.3902 4.08181 35.7587C3.48643 36.709 2.93401 37.7146 2.4307 38.7692C1.19697 41.3873 0.423589 43.9258 0.116691 46.3845C-0.190206 48.8432 0.122829 50.8298 1.06807 52.3443C2.01332 53.8587 3.78719 54.4106 6.38968 53.9875C8.10217 53.7116 9.58141 53.0739 10.8274 52.0745C12.0673 51.0751 13.1169 49.9775 13.9578 48.7819C14.7189 47.7027 15.3511 46.7278 15.8483 45.8449C15.48 46.4397 15.0626 47.0651 14.5961 47.7273Z" fill="#60B600"/>
<path d="M23.5268 49.6096C23.1953 49.3889 22.8823 49.1069 22.6061 48.7635C22.3237 48.4201 22.1519 48.0216 22.0782 47.574C21.9984 47.0896 22.201 45.6549 22.6736 43.2697C23.0971 41.1298 23.6372 38.8121 24.2817 36.3105L24.2388 36.2921C24.159 36.2737 24.0792 36.2799 24.0178 36.3166C23.9503 36.3534 23.9012 36.4147 23.8705 36.5006C23.1217 39.3333 22.5079 41.9453 22.0352 44.3305C21.5626 46.7156 21.3662 48.1504 21.4399 48.6347C21.5135 49.0823 21.6915 49.4809 21.9677 49.8242C22.2501 50.1676 22.557 50.4497 22.8884 50.6704C23.226 50.8911 23.5145 51.0444 23.7661 51.118C24.0178 51.1977 24.1528 51.1854 24.1835 51.0935C24.2388 50.7317 24.3001 50.3822 24.3554 50.0388C24.116 49.9653 23.8459 49.8181 23.5268 49.6096Z" fill="#60B600"/>
<path d="M44.9484 40.4676C44.8011 40.5044 44.6538 40.529 44.5003 40.5596C44.4942 40.5903 44.4942 40.6271 44.488 40.6577C43.9356 40.7926 43.328 40.8601 42.6589 40.8662C42.039 40.8294 41.548 40.6087 41.1735 40.2224C40.6457 39.9219 40.2222 39.4927 39.9091 38.9164C39.5715 39.2291 39.3137 39.6338 39.1357 40.1181C39.1787 40.0691 39.2217 40.02 39.2708 39.9771C39.86 41.0563 40.8114 41.6449 42.1249 41.7491C42.886 41.7736 43.6103 41.7001 44.3039 41.5345C44.1504 42.2335 43.9295 42.8712 43.641 43.4537C44.2609 42.6075 44.6967 41.6142 44.9484 40.4676Z" fill="#60B600"/>
<path d="M45.1258 39.5969C45.3836 37.8311 45.3345 36.2492 44.9908 34.8573C44.6409 33.4594 44.0701 32.7604 43.2845 32.7481C42.3085 32.9259 41.6456 33.5207 41.2773 34.5262C41.6333 34.1583 42.0876 33.9131 42.6461 33.815C43.4379 33.8211 44.0087 34.5262 44.3525 35.9242C44.6348 37.0647 44.7146 38.3216 44.598 39.7073C44.776 39.6705 44.954 39.6399 45.1258 39.5969Z" fill="#60B600"/>
<path d="M38.9881 36.6477C39.074 36.6355 39.16 36.6293 39.2398 36.6416C39.1416 35.4705 39.3196 34.3791 39.7738 33.3674C39.6203 33.5575 39.4792 33.7598 39.3564 33.9867C38.8899 34.8451 38.6321 35.7709 38.583 36.752C38.7119 36.709 38.8469 36.6723 38.9881 36.6477Z" fill="#60B600"/>
<path d="M43.8556 45.1643C42.8551 46.5929 41.5968 47.4146 40.0746 47.6353C37.9815 47.715 36.6066 46.8934 35.9683 45.1766C35.3238 43.4598 35.287 41.6817 35.8455 39.8422C35.9376 39.5479 36.0358 39.2781 36.1524 39.0206C35.7535 39.5172 35.4404 40.1427 35.2072 40.903C34.6486 42.7424 34.6854 44.5205 35.3299 46.2373C35.9744 47.9541 37.3432 48.7696 39.4362 48.696C40.9584 48.4753 42.2167 47.6476 43.2172 46.2251C43.4995 45.8265 43.7512 45.4034 43.9844 44.962C43.9415 45.0294 43.9047 45.0969 43.8556 45.1643Z" fill="#60B600"/>
<path d="M60.9072 40.2653C61.5701 38.8673 62.0366 37.3283 62.3066 35.6483C62.5706 33.9683 62.7486 32.509 62.8284 31.2827C62.8529 30.8535 62.8836 30.4917 62.9143 30.2036C62.8959 30.2097 62.8713 30.2158 62.8529 30.2281C62.5951 30.3384 62.4417 30.4549 62.3926 30.5714C62.3128 30.8412 62.2453 31.436 62.19 32.3434C62.1041 33.5759 61.9322 35.029 61.6683 36.709C61.4105 38.3645 60.9501 39.879 60.3057 41.2524C60.5266 40.9643 60.7292 40.6393 60.9072 40.2653Z" fill="#60B600"/>
<path d="M54.3082 39.3026C54.5722 37.7759 54.9588 36.2492 55.4744 34.7224C55.99 33.1957 56.5117 31.902 57.0396 30.8412C57.0826 30.7493 57.1255 30.6696 57.1685 30.5837C56.9537 30.8596 56.702 31.295 56.4013 31.902C55.8734 32.9688 55.3517 34.2626 54.8361 35.7832C54.3205 37.3099 53.9338 38.8367 53.6699 40.3634C53.4428 40.8355 53.2157 41.2831 52.9824 41.7062C53.4428 41.0011 53.8847 40.204 54.3082 39.3026Z" fill="#60B600"/>
<path d="M56.9418 44.9313C55.8861 45.0785 55.1373 44.8209 54.7076 44.1465C54.278 43.4782 54.0816 42.5523 54.1184 41.3751C53.9097 41.8104 53.6949 42.2273 53.48 42.6197C53.4678 43.7111 53.6642 44.5757 54.0693 45.2072C54.4989 45.8756 55.2416 46.1392 56.3035 45.992C58.0774 45.6058 59.5382 44.4469 60.6737 42.5094C60.7719 42.3377 60.8701 42.166 60.9683 41.9943C59.8819 43.6008 58.5438 44.5818 56.9418 44.9313Z" fill="#60B600"/>
<path d="M52.3077 44.5021C51.6694 45.3851 51.0556 45.8756 50.4663 45.9737C48.9257 46.2189 48.0296 45.6303 47.7779 44.2017C47.5263 42.7731 47.6306 41.0562 48.0909 39.0513C48.5513 37.0463 49.1344 35.2007 49.8464 33.5084C49.9814 33.1589 50.1042 32.8585 50.2085 32.6071C50.2761 32.4415 50.3497 32.276 50.4234 32.1166C50.3497 32.1411 50.2945 32.184 50.2515 32.2637C50.1472 32.4354 50.0305 32.6561 49.9078 32.9075C49.785 33.1651 49.6684 33.4164 49.564 33.674C49.4597 33.9254 49.3369 34.2258 49.2019 34.5753C48.496 36.2676 47.9068 38.1131 47.4465 40.1181C46.9861 42.1231 46.8818 43.8399 47.1334 45.2686C47.3851 46.6972 48.2812 47.2919 49.8218 47.0405C50.4172 46.9424 51.031 46.4581 51.6632 45.569C52.0376 45.0478 52.3998 44.4653 52.7558 43.8399C52.6146 44.0607 52.4612 44.2875 52.3077 44.5021Z" fill="#60B600"/>
<path d="M72.4029 30.5531C71.7523 30.6573 71.1201 31.3195 70.5001 32.5335C70.494 32.5519 70.4817 32.5703 70.4756 32.5887C70.8991 32.0124 71.3288 31.6935 71.7707 31.6199C72.1881 31.5525 72.3047 31.9204 72.1144 32.7113C71.9978 33.1957 71.8014 33.7046 71.519 34.2442C72.1574 33.3061 72.5686 32.4354 72.7528 31.6445C72.9308 30.8535 72.8203 30.4856 72.4029 30.5531Z" fill="#60B600"/>
<path d="M72.5194 40.3266C71.3225 41.9208 69.9231 42.8466 68.3149 43.1042C66.8541 43.3372 65.9334 42.7363 65.5529 41.3015C65.1723 39.8668 65.2091 38.15 65.6449 36.1572C66.0071 34.5263 66.584 32.9995 67.3697 31.577C67.339 31.6261 67.3083 31.669 67.2776 31.718C66.2035 33.3919 65.4485 35.2252 65.0066 37.218C64.5646 39.2107 64.534 40.9214 64.9145 42.3623C65.2951 43.797 66.2096 44.3979 67.6766 44.1649C69.2786 43.9074 70.6842 42.9815 71.8811 41.3874C72.5747 40.4676 73.1885 39.5295 73.7225 38.5853C73.3481 39.1739 72.9491 39.7503 72.5194 40.3266Z" fill="#60B600"/>
<path d="M85.5693 32.7297C85.0659 32.8094 84.5135 32.8094 83.912 32.7236C83.3105 32.6377 82.9729 32.3373 82.887 31.8223C82.8195 31.3931 82.8501 31.0068 82.9852 30.6573C83.0466 30.4243 83.0711 30.2403 83.0588 30.1055C83.0404 29.9706 82.9177 29.9276 82.6906 29.9644C82.2609 30.0319 81.6471 30.737 80.8553 32.0675C80.7448 32.2453 80.6405 32.4293 80.5361 32.6194C81.1806 31.6199 81.6839 31.0926 82.0522 31.0313C82.2855 30.9945 82.4082 31.0436 82.4205 31.1723C82.4389 31.3072 82.4143 31.4912 82.3468 31.7242C82.2118 32.0737 82.175 32.4599 82.2486 32.8891C82.3346 33.4042 82.6721 33.7046 83.2737 33.7905C83.8752 33.8763 84.4276 33.8763 84.9309 33.7966C85.1703 33.7598 85.4404 33.3735 85.7411 32.65C85.6797 32.6929 85.6245 32.7236 85.5693 32.7297Z" fill="#60B600"/>
<path d="M95.8627 41.7859C95.9057 41.743 95.9241 41.6939 95.9118 41.6265C95.8443 41.3444 95.5926 40.8539 95.1691 40.1488C94.7395 39.4437 93.9906 38.4994 92.9165 37.3099C92.5544 37.5797 92.1738 37.8556 91.781 38.1316C91.3022 38.4688 90.8726 38.7876 90.4797 39.1003C90.449 39.1248 90.4368 39.1678 90.449 39.2168C90.4552 39.2659 90.4859 39.3027 90.535 39.3272C90.6209 39.3701 90.7007 39.4069 90.7866 39.4498C90.9032 39.364 91.0199 39.2781 91.1426 39.1923C91.5355 38.9164 91.916 38.6405 92.2782 38.3707C93.3277 39.5357 94.0643 40.4615 94.494 41.1605C94.942 41.3751 95.341 41.5897 95.697 41.792C95.7645 41.8288 95.8198 41.8288 95.8627 41.7859Z" fill="#60B600"/>
<path d="M91.4004 37.218C91.7012 37.0095 92.0142 36.7888 92.3395 36.5435C90.9033 34.747 89.823 32.9075 89.0987 31.0129C88.4419 28.7443 88.4542 26.8558 89.1417 25.3475C89.1478 25.3352 89.1539 25.3229 89.1601 25.3107C88.9146 25.6234 88.6936 25.9913 88.5033 26.4082C87.8159 27.9165 87.8036 29.805 88.4603 32.0737C89.1294 33.8334 90.1115 35.5441 91.4004 37.218Z" fill="#60B600"/>
<path d="M98.2438 44.0913C97.6055 44.5757 96.9057 44.6064 96.1324 44.1772C94.9109 43.4475 93.6894 42.7669 92.4741 42.1293C91.2159 41.4732 90.2154 40.903 89.4665 40.4063C89.1105 40.1733 88.8712 39.9649 88.7484 39.7809C88.5397 39.9526 88.3249 40.1365 88.0978 40.3266C87.8338 40.5964 88.0794 40.9765 88.8282 41.4671C89.577 41.9576 90.5836 42.5339 91.8358 43.19C93.0572 43.8277 94.2726 44.5083 95.494 45.2379C96.2613 45.6671 96.9671 45.6365 97.6055 45.1521C97.9676 44.8762 98.207 44.496 98.3297 44.0116C98.2991 44.0361 98.2745 44.0668 98.2438 44.0913Z" fill="#60B600"/>
<path d="M46.5928 65.95C45.1995 67.5748 43.4318 68.6601 41.2896 69.1874C41.2221 69.2058 41.1484 69.218 41.0748 69.2303H41.0625C41.0379 69.2548 40.9888 69.261 40.9275 69.2487C40.1725 69.3345 39.528 69.2364 38.9817 68.9544C38.7239 68.8195 38.4907 68.6723 38.282 68.5191C37.8646 68.6172 37.5332 68.6417 37.2754 68.5926C37.1465 68.5804 37.0544 68.6233 36.9992 68.7214C36.9439 68.8195 36.9562 68.9176 37.0299 69.028C37.3552 69.402 37.791 69.7331 38.3372 70.0213C38.8835 70.3033 39.5341 70.4075 40.283 70.3156C40.3444 70.3278 40.3873 70.3217 40.418 70.2972H40.4303C40.5039 70.2849 40.5715 70.2727 40.6451 70.2543C42.7873 69.7208 44.555 68.6417 45.9483 67.0168C46.6664 66.1768 47.2802 65.2816 47.7958 64.3374C47.4337 64.8892 47.0347 65.4288 46.5928 65.95Z" fill="#60B600"/>
<path d="M52.7678 66.0113C51.6385 66.2933 50.9019 65.9193 50.5582 64.8954C50.2145 63.8714 50.1838 62.6083 50.46 61.1122C50.6994 59.8308 51.1229 58.6167 51.7244 57.4763C51.6139 57.6296 51.5096 57.7951 51.4052 57.9668C50.6257 59.2728 50.0978 60.6769 49.8216 62.173C49.5454 63.6691 49.5761 64.9321 49.9198 65.9561C50.2636 66.98 51.0001 67.3541 52.1295 67.072C52.7801 66.9126 53.4185 66.2995 54.0384 65.2448C54.1489 65.0548 54.2532 64.8708 54.3576 64.6808C53.8358 65.4349 53.308 65.8764 52.7678 66.0113Z" fill="#60B600"/>
<path d="M70.0891 55.0728C70.0646 55.085 70.04 55.1034 70.0155 55.1341C69.9848 55.177 69.9664 55.2138 69.9541 55.2506C70.0093 55.1831 70.0523 55.1279 70.0891 55.0728Z" fill="#60B600"/>
<path d="M20.0831 22.8029C20.2857 23.1401 20.4882 23.5264 20.6908 23.9495C20.8933 24.3726 21.0468 24.765 21.145 25.1267C21.2432 25.4885 21.2309 25.746 21.1082 25.8993C20.2611 26.8558 19.4816 28.2599 18.7757 30.1116C18.0699 31.9572 17.5481 33.4839 17.2106 34.6857C17.143 34.8451 17.0387 34.9248 16.8853 34.9309C16.7318 34.9371 16.6213 34.8635 16.5538 34.7041C16.431 34.3546 16.2469 33.8518 16.0075 33.2019C15.7804 32.4722 15.8111 31.5218 16.1057 30.3507C14.0004 30.081 12.0117 30.97 10.1458 33.0241C8.27984 35.0781 6.81287 37.5061 5.74487 40.3205C4.683 43.1348 4.30859 45.5445 4.62776 47.5556C4.94693 49.5667 6.24204 50.4006 8.51922 50.0572C10.4834 49.5851 12.067 48.7267 13.27 47.4882C14.473 46.2496 15.3569 45.1092 15.9277 44.0729C14.5099 44.1526 13.1288 44.3734 11.7785 44.7229C10.4343 45.0724 9.33557 45.4096 8.50081 45.7223C8.34736 45.7714 8.21846 45.753 8.0957 45.6794C7.97908 45.6058 7.89929 45.4954 7.87474 45.3544C7.84405 45.2134 7.89315 45.0846 8.00363 44.962C8.82612 44.1772 10.0414 43.5088 11.6557 42.9509C13.27 42.3929 14.8659 42.0618 16.4495 41.9515C18.033 41.8411 19.1808 42.0741 19.8928 42.6504C20.4268 43.1594 20.7706 43.6744 20.9302 44.1894C21.0836 44.7045 21.1204 45.103 21.0284 45.3912C20.9363 45.6733 20.8013 45.7284 20.611 45.5445C19.8069 44.6738 18.6959 44.1894 17.2842 44.1036C16.7625 45.054 16.075 46.127 15.2341 47.3226C14.3871 48.5182 13.3437 49.6158 12.1038 50.6152C10.8639 51.6146 9.38467 52.2523 7.66605 52.5282C5.06355 52.9452 3.28969 52.3995 2.34444 50.885C1.3992 49.3705 1.08616 47.3839 1.39306 44.9252C1.69996 42.4665 2.47334 39.9281 3.7132 37.3161C4.94693 34.7041 6.48142 32.417 8.31053 30.4611C10.1396 28.5052 12.0608 27.3647 14.0863 27.0397C14.4178 26.9846 14.8781 26.9662 15.4735 26.9784C16.0689 26.9907 16.6336 27.0765 17.1799 27.236C18.0024 25.3352 18.7021 23.8637 19.2791 22.8274C19.3773 22.668 19.5123 22.5822 19.6903 22.5822C19.856 22.5577 19.9911 22.6374 20.0831 22.8029Z" fill="white"/>
<path d="M33.9186 33.4226C34.7779 33.2877 35.3304 33.5697 35.5759 34.2687C35.8214 34.9738 35.8828 35.8077 35.76 36.7765C35.6311 37.7452 35.4163 38.622 35.1033 39.4069C34.7902 40.1917 34.5079 40.6086 34.2562 40.6516C33.7529 40.7313 33.2005 40.7313 32.599 40.6454C31.9974 40.5596 31.6599 40.2591 31.5739 39.7441C31.5064 39.3149 31.5371 38.9286 31.6721 38.5791C31.7335 38.3461 31.7581 38.1622 31.7458 38.0273C31.7274 37.8924 31.6046 37.8495 31.3775 37.8863C30.9479 37.9537 30.3341 38.6588 29.5423 39.9894C28.7505 41.3199 27.9832 42.7914 27.2528 44.404C26.5224 46.0166 25.9884 47.3716 25.6569 48.4692C25.5956 48.8371 25.528 49.2233 25.4667 49.6157C25.436 49.7077 25.2948 49.72 25.0493 49.6403C24.7976 49.5606 24.5091 49.4134 24.1716 49.1927C23.8401 48.9719 23.5271 48.6899 23.2509 48.3465C22.9685 48.0032 22.7967 47.6046 22.723 47.157C22.6432 46.6726 22.8458 45.2379 23.3184 42.8527C23.791 40.4676 24.4048 37.8556 25.1536 35.0229C25.1843 34.937 25.2334 34.8757 25.3009 34.8389C25.3685 34.8021 25.4421 34.7899 25.5219 34.8144L26.5715 35.2375C27.1055 35.4092 27.5045 35.728 27.7684 36.194C28.0323 36.66 28.0937 37.1689 27.9525 37.7207C27.4738 39.4559 26.9889 41.559 26.4856 44.0361C27.0012 42.816 27.6641 41.418 28.4804 39.8361C29.2967 38.2603 30.1868 36.8317 31.1381 35.5563C32.0895 34.2748 33.0163 33.5636 33.9186 33.4226Z" fill="white"/>
<path d="M31.9536 41.0685C31.3521 40.9827 31.0145 40.6822 30.9286 40.1672C30.8611 39.738 30.8917 39.3517 31.0268 39.0022C31.082 38.7999 31.1066 38.6404 31.1004 38.5117C30.8979 38.7508 30.6708 39.0574 30.4314 39.4375C30.4437 39.4621 30.4559 39.4866 30.4621 39.5172C30.4805 39.6521 30.456 39.8361 30.3884 40.0691C30.2534 40.4186 30.2166 40.8049 30.2902 41.2341C30.3762 41.7491 30.7137 42.0495 31.3153 42.1354C31.9168 42.2212 32.4692 42.2212 32.9725 42.1415C33.2119 42.1047 33.482 41.7184 33.7827 40.9949C33.7275 41.0378 33.6661 41.0685 33.6109 41.0808C33.1075 41.1543 32.5551 41.1543 31.9536 41.0685Z" fill="#60B600"/>
<path d="M50.9759 35.3847C51.0128 35.4092 51.0435 35.4337 51.0742 35.4705C51.1048 35.5073 51.111 35.5441 51.0926 35.5747C50.3928 37.3222 48.9013 38.7018 46.618 39.7257C46.2068 41.6387 45.4948 43.3126 44.5004 44.7351C43.4999 46.1638 42.2416 46.9854 40.7194 47.2061C38.6264 47.2858 37.2515 46.4642 36.6131 44.7474C35.9687 43.0306 35.9318 41.2525 36.4904 39.413C37.0489 37.5736 38.0985 36.5067 39.6269 36.2124C39.7128 36.2001 39.7987 36.194 39.8785 36.2063C39.7619 34.8635 40.0136 33.6249 40.6335 32.4845C41.2534 31.3502 42.2355 30.6757 43.592 30.4734C45.0712 30.4243 46.0656 31.2459 46.575 32.9321C47.0845 34.6182 47.152 36.5926 46.7837 38.8612C47.9008 38.3891 48.7724 37.8188 49.3862 37.1566C50 36.4944 50.3867 35.9794 50.5402 35.6054C50.5524 35.5563 50.5893 35.5073 50.6322 35.4582C50.6813 35.403 50.7243 35.3785 50.7673 35.3663C50.7918 35.3601 50.8041 35.3601 50.8164 35.3601C50.8286 35.3601 50.847 35.354 50.8839 35.3479C50.9084 35.354 50.9391 35.3663 50.9759 35.3847ZM41.4805 44.7045C42.6038 44.5573 43.5061 44.0484 44.1751 43.1716C44.8441 42.3009 45.3168 41.2525 45.5807 40.0384C44.8871 40.204 44.1567 40.2776 43.4017 40.253C42.0882 40.1488 41.1368 39.5602 40.5476 38.481C39.989 38.9961 39.6453 39.7564 39.5164 40.7558C39.3875 41.7552 39.4857 42.6688 39.8049 43.4966C40.1302 44.3366 40.6826 44.7351 41.4805 44.7045ZM43.9173 32.3189C42.8738 32.509 42.1803 33.1712 41.8365 34.2994C41.4867 35.4337 41.4867 36.5435 41.8304 37.6349C42.1741 38.7263 42.88 39.3088 43.9357 39.3762C44.5986 39.3701 45.2063 39.3027 45.7648 39.1678C46.0226 37.4019 45.9735 35.82 45.6298 34.4281C45.2799 33.0302 44.7091 32.3312 43.9173 32.3189Z" fill="white"/>
<path d="M63.6749 29.0815C63.724 28.9589 63.8774 28.8485 64.1352 28.7381C64.393 28.6278 64.6815 28.5297 65.0007 28.45C65.3198 28.3641 65.5961 28.3028 65.8232 28.266C66.0564 28.2292 66.1669 28.2415 66.1669 28.2967C66.1116 28.5174 66.0318 28.873 65.9275 29.3513C65.682 30.7063 65.2462 32.509 64.6078 34.7592C63.9695 37.0095 63.0856 39.1003 61.9501 41.0317C60.8146 42.9631 59.3538 44.1281 57.5799 44.5144C56.5242 44.6615 55.7753 44.404 55.3457 43.7296C54.916 43.0612 54.7196 42.1354 54.7564 40.9581C54.1795 42.1538 53.5779 43.1961 52.9396 44.0791C52.3012 44.962 51.6875 45.4525 51.0982 45.5506C49.5576 45.7959 48.6614 45.2072 48.4098 43.7786C48.1581 42.35 48.2625 40.6332 48.7228 38.6282C49.1832 36.6232 49.7663 34.7776 50.4783 33.0853C50.6133 32.7359 50.7361 32.4354 50.8404 32.184C50.9448 31.9326 51.0614 31.6751 51.1841 31.4176C51.3069 31.1601 51.4235 30.9455 51.5279 30.7738C51.5892 30.6634 51.6813 30.6082 51.8041 30.6082C52.3074 30.6389 52.8107 30.8842 53.314 31.3379C53.8235 31.7916 54.0015 32.5213 53.8603 33.5207C53.7805 33.815 53.6025 34.3914 53.3263 35.2436C53.0071 36.2063 52.6818 37.2731 52.3442 38.4504C52.0066 39.6276 51.7857 40.6454 51.6752 41.5038C51.5647 42.3684 51.7243 42.7608 52.1539 42.6933C52.5468 42.632 52.9948 42.2212 53.4981 41.4732C53.9953 40.7251 54.4802 39.8606 54.9406 38.8857C55.2045 37.359 55.5912 35.8322 56.1068 34.3055C56.6224 32.7788 57.1441 31.485 57.672 30.4243C58.1998 29.3574 58.5927 28.8056 58.8443 28.7688C59.1758 28.7136 59.4949 28.8546 59.7957 29.1796C60.1026 29.5107 60.3358 29.897 60.5016 30.3446C60.6611 30.7922 60.698 31.1969 60.612 31.5586C60.5629 31.7487 60.4463 32.1227 60.2683 32.6807C59.9369 33.7046 59.5502 34.9677 59.1144 36.4822C58.6724 37.9966 58.3533 39.3578 58.1569 40.5657C57.9543 41.7736 58.0893 42.3439 58.5497 42.2703C59.8816 42.0557 60.876 41.2525 61.545 39.8545C62.2079 38.4565 62.6744 36.9175 62.9445 35.2375C63.2084 33.5575 63.3864 32.0982 63.4662 30.8719C63.5214 29.946 63.5951 29.3513 63.6749 29.0815Z" fill="white"/>
<path d="M73.5566 38.3584C73.7224 38.1806 73.8819 37.9967 74.0354 37.7882C74.0722 37.7391 74.1091 37.6901 74.1397 37.641C74.238 36.9421 74.4037 36.0346 74.6246 34.9187C75.0482 32.7788 75.5883 30.4611 76.2328 27.9595L76.1898 27.9411C76.11 27.9227 76.0302 27.9288 75.9689 27.9656C75.9013 28.0024 75.8522 28.0637 75.8215 28.1495C75.0727 30.9823 74.4589 33.5943 73.9863 35.9794C73.8022 36.9237 73.6548 37.7146 73.5566 38.3584Z" fill="#60B600"/>
<path d="M74.5633 40.4186C74.2809 40.0752 74.109 39.6767 74.0354 39.2291C74.0354 39.223 74.0354 39.2168 74.0354 39.2107C73.8758 39.4437 73.7101 39.6706 73.5382 39.8974C73.4891 39.9649 73.44 40.0262 73.3848 40.0936C73.3848 40.1733 73.3909 40.2408 73.397 40.2898C73.4707 40.7374 73.6487 41.136 73.9249 41.4793C74.2073 41.8227 74.5142 42.1047 74.8456 42.3255C75.1832 42.5462 75.4717 42.6995 75.7233 42.7731C75.975 42.8528 76.11 42.8405 76.1407 42.7485C76.1959 42.3868 76.2573 42.0373 76.3126 41.6939C76.0732 41.6142 75.797 41.4671 75.4839 41.2586C75.1525 41.044 74.8395 40.762 74.5633 40.4186Z" fill="#60B600"/>
<path d="M85.8698 25.0777C86.7291 24.9428 87.2815 25.2248 87.5271 25.9238C87.7726 26.6289 87.8339 27.4628 87.7112 28.4316C87.5823 29.4003 87.3675 30.2771 87.0544 31.062C86.7414 31.8529 86.459 32.2637 86.2074 32.3066C85.7041 32.3864 85.1517 32.3864 84.5501 32.3005C83.9486 32.2147 83.611 31.9142 83.5251 31.3992C83.4576 30.97 83.4883 30.5837 83.6233 30.2342C83.6847 30.0012 83.7092 29.8173 83.697 29.6824C83.6786 29.5475 83.5558 29.5046 83.3287 29.5414C82.899 29.6088 82.2852 30.3139 81.4934 31.6444C80.7016 32.975 79.9344 34.4465 79.204 36.0591C78.4736 37.6717 77.9396 39.0267 77.6081 40.1243C77.5467 40.4921 77.4792 40.8784 77.4178 41.2708C77.3872 41.3628 77.246 41.3751 77.0005 41.2954C76.7488 41.2157 76.4603 41.0685 76.1227 40.8478C75.7913 40.627 75.4782 40.345 75.202 40.0016C74.9197 39.6583 74.7478 39.2597 74.6742 38.8121C74.5944 38.3277 74.7969 36.893 75.2696 34.5078C75.7422 32.1227 76.356 29.5107 77.1048 26.678C77.1355 26.5921 77.1846 26.5308 77.2521 26.494C77.3196 26.4572 77.3933 26.445 77.4731 26.4695L78.5227 26.8926C79.0567 27.0642 79.4556 27.3831 79.7196 27.8491C79.9835 28.3151 80.0449 28.824 79.9037 29.3758C79.425 31.111 78.9401 33.2141 78.4367 35.6912C78.9523 34.471 79.6152 33.0731 80.4316 31.4912C81.2479 29.9154 82.1379 28.4867 83.0893 27.2114C84.0407 25.9299 84.9737 25.2187 85.8698 25.0777Z" fill="white"/>
<path d="M102.184 27.1562C102.332 27.1562 102.436 27.2114 102.51 27.3218C102.577 27.4322 102.571 27.5548 102.491 27.6774C100.472 30.3875 98.2746 32.7604 95.9054 34.7838C96.4148 35.7709 96.9304 36.5558 97.4521 37.1383C98.8577 38.714 99.6065 40.0752 99.6986 41.2218C99.7907 42.3684 99.5206 43.1839 98.8823 43.6683C98.2439 44.1526 97.5442 44.1833 96.7708 43.7541C95.5494 43.0245 94.3279 42.3439 93.1126 41.7062C91.8543 41.0501 90.8538 40.4799 90.105 39.9833C89.3562 39.4927 89.1106 39.1126 89.3746 38.8428C90.3444 38.0089 91.1853 37.3651 91.885 36.9053C92.2287 36.6723 92.597 36.4086 92.9776 36.1204C91.5413 34.3239 90.461 32.4845 89.7367 30.5899C89.08 28.3212 89.0922 26.4327 89.7797 24.9244C90.4671 23.4161 91.5106 22.5822 92.9039 22.4105C93.2783 22.4105 93.7264 22.5638 94.2665 22.8765C94.8005 23.1892 95.3161 23.5693 95.801 24.0047C96.2859 24.4461 96.6603 24.8385 96.912 25.1758C97.1636 25.5191 97.1943 25.7031 97.0102 25.7337C95.1749 25.838 94.2543 26.7577 94.242 28.499C94.2297 30.2404 94.6655 32.0675 95.5432 33.9744C96.7892 32.8953 97.9309 31.7916 98.9559 30.6573C99.9871 29.523 100.779 28.6155 101.331 27.9288C101.571 27.6529 101.743 27.4506 101.859 27.3218C101.945 27.2176 102.056 27.1624 102.184 27.1562ZM96.3412 41.369C96.4025 41.4058 96.4578 41.3996 96.5007 41.3628C96.5437 41.3199 96.5621 41.2709 96.5498 41.2034C96.4823 40.9214 96.2307 40.4309 95.8072 39.7257C95.3775 39.0206 94.6287 38.0764 93.5545 36.8869C93.1924 37.1566 92.8118 37.4326 92.419 37.7085C91.9402 38.0457 91.5106 38.3645 91.1178 38.6773C91.0871 38.7018 91.0748 38.7447 91.0871 38.7938C91.0932 38.8428 91.1239 38.8796 91.173 38.9041C92.0078 39.3211 92.8425 39.7135 93.6773 40.0752C94.7453 40.5351 95.6353 40.9643 96.3412 41.369Z" fill="white"/>
<path d="M44.2356 49.021C46.0954 48.5612 47.5255 48.8432 48.5322 49.8733C49.5388 50.9034 50.1342 52.3259 50.3244 54.1408C50.5147 55.9557 50.2999 57.8687 49.6861 59.8798C49.0723 61.891 48.0657 63.712 46.6724 65.3368C45.279 66.9617 43.5113 68.0469 41.3692 68.5743C41.3016 68.5926 41.228 68.6049 41.1543 68.6172H41.1421C41.1175 68.6417 41.0684 68.6478 41.007 68.6356C40.2521 68.7214 39.6076 68.6233 39.0613 68.3413C38.515 68.0592 38.0792 67.7281 37.7539 67.348C37.6803 67.2437 37.668 67.1395 37.7232 67.0414C37.7785 66.9433 37.8705 66.9004 37.9994 66.9126C38.2511 66.9555 38.5887 66.931 39.0061 66.839C38.9569 66.2872 39.0429 65.1652 39.2516 63.4729C39.4603 61.7806 39.7426 59.9228 40.1047 57.8994C40.4669 55.876 40.8536 54.0856 41.271 52.5344C40.3625 53.2395 39.5585 53.9691 38.8465 54.7172C38.1345 55.4652 37.6005 56.0722 37.2322 56.5443C37.1217 56.6608 36.9928 56.7037 36.8516 56.6731C36.7105 56.6363 36.6245 56.5382 36.5938 56.3849C36.4711 55.8147 36.5325 55.0789 36.7718 54.1776C37.0174 53.2701 37.6864 52.3443 38.7851 51.3939C39.8776 50.4435 41.6945 49.6526 44.2356 49.021ZM41.3692 66.2566C43.008 65.7476 44.567 64.4723 46.034 62.4183C47.5071 60.3704 48.4708 58.2366 48.9188 56.0232C49.3731 53.8097 48.9004 52.2033 47.501 51.2038C46.2243 50.5294 44.8923 50.5294 43.499 51.1977C43.7507 51.5533 43.8612 51.9089 43.8243 52.2646C43.585 53.5031 43.3333 54.6865 43.0694 55.7963C42.7748 57.0532 42.4801 58.4819 42.1794 60.0822C41.8848 61.6825 41.6147 63.7365 41.3692 66.2566Z" fill="white"/>
<path d="M36.5394 57.0164C36.4412 57.1023 36.3307 57.1329 36.208 57.1023C36.0668 57.0655 35.9809 56.9674 35.9502 56.8141C35.8274 56.2439 35.8888 55.5081 36.1282 54.6068C36.1711 54.4535 36.2264 54.3002 36.2939 54.1408C35.8949 54.6558 35.6249 55.1647 35.4898 55.6675C35.2443 56.575 35.1829 57.3107 35.3118 57.8748C35.3425 58.0343 35.4284 58.1324 35.5696 58.163C35.7108 58.1998 35.8397 58.1569 35.9502 58.0343C36.122 57.8135 36.3307 57.556 36.5824 57.274C36.564 57.1942 36.5517 57.1084 36.5394 57.0164Z" fill="#60B600"/>
<path d="M45.9113 62.0933C47.0959 60.2722 47.8877 58.396 48.2867 56.4462C48.7409 54.2328 48.2682 52.6263 46.8688 51.6269C45.9481 51.1425 44.9967 51.0076 44.0146 51.2222C44.1742 51.5043 44.2356 51.7924 44.2111 52.0806C44.2049 52.1174 44.1988 52.1542 44.1865 52.191C44.8862 52.1787 45.5676 52.3381 46.2305 52.6876C47.6299 53.6871 48.1025 55.2935 47.6483 57.507C47.323 59.0827 46.7399 60.6095 45.9113 62.0933Z" fill="#60B600"/>
<path d="M64.2033 63.1724C62.7916 63.3441 61.7911 62.9088 61.2018 61.8725C61.0729 62.1791 60.9379 62.4796 60.7967 62.78C60.7476 62.8842 60.6985 62.9823 60.6494 63.0804C61.2509 64.0124 62.2207 64.3987 63.5649 64.2393C64.6514 63.9879 65.5107 63.3134 66.149 62.2159C66.2472 62.0442 66.3454 61.8603 66.4314 61.6825C65.8421 62.4612 65.0994 62.9639 64.2033 63.1724Z" fill="#60B600"/>
<path d="M71.5376 53.5644C71.5683 53.5767 71.5929 53.5951 71.6113 53.6196C71.6358 53.6441 71.642 53.6687 71.6297 53.6932C71.2307 54.9992 70.2364 56.0906 68.6467 56.9674C68.4625 58.3776 68.0574 59.6284 67.4191 60.7198C66.7807 61.8112 65.9214 62.4857 64.835 62.7432C63.325 62.9272 62.2816 62.4182 61.7108 61.2165C61.1399 60.0147 61.0049 58.7271 61.2934 57.3659C61.588 55.9986 62.2755 55.1647 63.368 54.8582C63.4294 54.8398 63.4908 54.8336 63.5521 54.8398C63.3864 53.8771 63.4908 52.9635 63.8713 52.1051C64.2519 51.2467 64.9209 50.701 65.8907 50.468C66.9587 50.3454 67.7321 50.8788 68.1986 52.0683C68.6712 53.2578 68.8431 54.6865 68.7142 56.3481C69.4937 55.9373 70.0891 55.4774 70.4942 54.9563C70.8993 54.4412 71.1448 54.0427 71.2369 53.7606C71.243 53.7238 71.2614 53.687 71.2982 53.6441C71.3289 53.6012 71.3596 53.5767 71.3903 53.5705C71.4087 53.5644 71.4149 53.5644 71.4271 53.5644C71.4333 53.5644 71.4517 53.5583 71.4762 53.5522C71.4885 53.546 71.5131 53.5522 71.5376 53.5644ZM65.2401 60.8854C66.0442 60.7076 66.6641 60.2845 67.0999 59.61C67.5295 58.9356 67.8057 58.1507 67.9285 57.2556C67.4375 57.4211 66.9157 57.5131 66.3633 57.5437C65.4058 57.5499 64.6815 57.182 64.1905 56.4339C63.8161 56.8447 63.6135 57.415 63.5828 58.1446C63.5521 58.8743 63.681 59.5303 63.9573 60.1128C64.2396 60.7014 64.6693 60.9528 65.2401 60.8854ZM66.2467 51.774C65.504 51.9764 65.0437 52.4975 64.8595 53.3376C64.6754 54.1776 64.7429 54.9808 65.0621 55.7533C65.3813 56.5259 65.9214 56.8999 66.6948 56.8815C67.1735 56.8386 67.6093 56.7466 68.0022 56.6179C68.082 55.3241 67.9531 54.1837 67.6155 53.1965C67.2717 52.2094 66.8175 51.7372 66.2467 51.774Z" fill="white"/>
<path d="M62.8706 54.8704C62.8031 54.1346 62.8952 53.4295 63.1468 52.7612C62.9259 52.9942 62.7417 53.2701 62.6006 53.5951C62.355 54.153 62.2261 54.7417 62.2139 55.3487C62.4041 55.1525 62.6251 54.9931 62.8706 54.8704Z" fill="#60B600"/>
<path d="M63.976 58.8314C64.3013 58.9724 64.6696 59.046 65.087 59.0398C65.6394 59.0092 66.1611 58.9172 66.6521 58.7516C66.5723 59.3403 66.425 59.8798 66.2102 60.3765C66.3023 60.2722 66.3882 60.1619 66.4619 60.0392C66.8915 59.3648 67.1677 58.58 67.2905 57.6848C67.1125 57.7461 66.9283 57.789 66.7381 57.8319C66.7319 57.9239 66.7319 58.0097 66.7258 58.1017C66.333 58.2305 65.8972 58.3224 65.4184 58.3654C64.8046 58.3776 64.332 58.1385 64.0067 57.648C63.9821 57.8074 63.9637 57.9729 63.9514 58.1508C63.9453 58.3899 63.9514 58.6106 63.976 58.8314Z" fill="#60B600"/>
<path d="M27.3747 33.2693C29.3756 22.2878 39.0183 13.9307 50.5823 13.9307C53.2768 13.9307 55.867 14.3844 58.2792 15.2183C58.0276 14.7891 57.5795 14.3292 57.0701 13.8816C54.7683 13.2501 52.3316 12.9435 49.8089 13.0232C38.0547 13.3911 28.3813 22.0978 26.4355 33.3367C26.7547 33.2938 27.0678 33.2693 27.3747 33.2693Z" fill="white"/>
<path d="M28.732 33.5145C30.6163 23.1769 39.7005 15.3103 50.5831 15.3103C53.1978 15.3103 55.7021 15.764 58.0346 16.5979C58.2494 16.4752 58.3783 16.3219 58.4458 16.1625C55.7512 15.1692 52.8234 14.6726 49.7667 14.7768C39.0192 15.157 30.113 23.0604 28.2041 33.3551C28.3821 33.3981 28.5601 33.4471 28.732 33.5145Z" fill="#60B600"/>
<path d="M68.8426 51.0628C70.7638 48.4876 72.1571 45.4954 72.8446 42.2458C72.6543 42.3132 72.4456 42.399 72.2246 42.4971C71.5617 45.3544 70.3464 48.0032 68.6953 50.327C68.7444 50.5907 68.7935 50.8359 68.8426 51.0628Z" fill="#60B600"/>
<path d="M87.3245 41.7798C85.1946 60.1435 69.5306 74.4543 50.5827 74.4543C34.8389 74.4543 21.3599 64.5765 16.0322 50.6949C15.8787 50.7869 15.7253 50.8911 15.5596 51.0015C20.9978 65.0302 34.6425 75.0061 50.5827 75.0061C69.8313 75.0061 85.7409 60.4562 87.8769 41.7859C87.6989 41.7736 87.5086 41.7736 87.3245 41.7798Z" fill="#60B600"/>
<path d="M15.351 26.2426C20.1324 11.3555 34.1147 0.551831 50.5828 0.551831C66.0504 0.551831 79.3268 10.0862 84.8449 23.5755C85.0229 23.5203 85.2009 23.4712 85.3727 23.416C79.7872 9.69997 66.296 0 50.5828 0C33.7955 0 19.5493 11.0673 14.7617 26.2733C14.9581 26.261 15.1545 26.2488 15.351 26.2426Z" fill="#60B600"/>
<path d="M17.0815 26.2549C21.7955 12.2874 35.0289 2.20118 50.5825 2.20118C65.2829 2.20118 77.9148 11.2206 83.2303 24.0047C83.531 23.9372 83.8318 23.8575 84.1264 23.7778C78.7004 10.5951 65.7064 1.28146 50.5764 1.28146C34.5256 1.28146 20.8809 11.754 16.124 26.2181C16.4555 26.2242 16.7746 26.2365 17.0815 26.2549Z" fill="white"/>
<path d="M85.6428 41.9085C83.4638 59.2973 68.5731 72.7988 50.5828 72.7988C35.4834 72.7988 22.5692 63.2889 17.5177 49.9468C17.2599 50.0388 16.9837 50.1614 16.6768 50.3209C21.8695 63.9817 35.109 73.7124 50.5828 73.7124C69.1133 73.7124 84.4398 59.751 86.5819 41.8043C86.2811 41.8288 85.9681 41.8656 85.6428 41.9085Z" fill="white"/>
<path d="M34.7648 54.6436C31.837 51.9028 29.4616 48.5121 28.2279 45.0724C28.0192 45.4096 27.8167 45.753 27.6387 46.1024C29.0934 49.953 31.4933 53.3437 34.55 55.9925C34.5684 55.5449 34.6482 55.0912 34.7648 54.6436Z" fill="white"/>
<path d="M34.9612 54.012C35.0287 53.8281 35.1024 53.638 35.176 53.4602C32.4139 50.7991 30.3393 47.433 29.2406 43.656C29.0994 43.8277 28.9644 44.0055 28.8232 44.1894C29.9956 47.9848 32.1377 51.351 34.9612 54.012Z" fill="#60B600"/>
<path d="M25.6439 19.823L26.2208 20.1786L25.337 21.6195L25.9324 21.9874L26.7303 20.6937L27.2827 21.0309L26.4848 22.3246L27.0863 22.6925L28.0009 21.2087L28.5717 21.5582L27.2643 23.6919L24.3672 21.9077L25.6439 19.823Z" fill="white"/>
<path d="M27.3319 18.6948C27.3319 18.7868 27.3749 18.8665 27.4485 18.9278C27.5283 18.9891 27.6143 19.0014 27.7186 18.9707C27.8168 18.9401 28.001 18.8175 28.2649 18.6151C28.5288 18.4128 28.7743 18.2901 29.0137 18.2472C29.247 18.2043 29.4863 18.284 29.7257 18.468C29.9651 18.658 30.0879 18.9033 30.094 19.1976C30.1001 19.4919 29.9897 19.7862 29.7564 20.0805C29.4188 20.5036 28.9646 20.755 28.3815 20.847L28.2281 20.148C28.7068 20.0621 29.0444 19.8966 29.2347 19.6513C29.3206 19.541 29.3636 19.4367 29.3697 19.3386C29.3697 19.2405 29.3329 19.1547 29.2531 19.0934C29.1733 19.0321 29.0812 19.0137 28.983 19.0382C28.8848 19.0688 28.7314 19.1608 28.5288 19.3141C28.2096 19.5655 27.9334 19.7126 27.7002 19.7617C27.467 19.8107 27.2276 19.7372 26.9759 19.5348C26.7243 19.3325 26.6015 19.0872 26.6076 18.7991C26.6138 18.5109 26.7243 18.2288 26.9391 17.959C27.0803 17.7812 27.2521 17.6279 27.4547 17.4992C27.6572 17.3704 27.8659 17.2846 28.0807 17.2417L28.2772 17.8855C27.9212 17.9774 27.6388 18.143 27.4485 18.3944C27.3687 18.5047 27.3319 18.6029 27.3319 18.6948Z" fill="white"/>
<path d="M30.0018 15.6843L31.9353 17.6279L31.3951 18.1614L29.4617 16.2177L28.7865 16.8983L28.3262 16.4323L30.2289 14.5438L30.6893 15.0098L30.0018 15.6843Z" fill="white"/>
<path d="M32.8125 16.7082C32.6959 16.7021 32.5977 16.6469 32.5241 16.5549C32.4443 16.463 32.4136 16.3587 32.4197 16.2422C32.432 16.1257 32.4811 16.0276 32.5732 15.9479C32.6652 15.8682 32.7696 15.8376 32.8862 15.8437C33.0028 15.8498 33.101 15.905 33.1808 15.9908C33.2606 16.0828 33.2913 16.187 33.2852 16.3035C33.279 16.42 33.2238 16.5181 33.1378 16.5979C33.0335 16.6837 32.9292 16.7144 32.8125 16.7082Z" fill="white"/>
<path d="M35.0041 12.6063C35.0102 12.4591 34.9857 12.3365 34.9243 12.2384C34.8629 12.1403 34.7831 12.0851 34.6788 12.0606C34.5744 12.0361 34.4762 12.0545 34.378 12.1219C34.2 12.2384 34.1079 12.4775 34.1141 12.8332L33.4082 12.8577C33.4082 12.5634 33.4512 12.312 33.5432 12.1035C33.6353 11.895 33.801 11.7111 34.0527 11.5517C34.2982 11.3923 34.5683 11.3309 34.8568 11.3677C35.1452 11.4045 35.3723 11.5578 35.5503 11.8276C35.6424 11.9748 35.6977 12.1403 35.7099 12.3242C35.7222 12.5082 35.6915 12.7657 35.6301 13.1091L35.4583 13.9736L36.5877 13.2501L36.9559 13.8203L34.9243 15.1141L34.6174 14.6419L34.9059 13.244C34.9672 12.968 34.9979 12.7534 35.0041 12.6063Z" fill="white"/>
<path d="M38.6872 12.9742C38.2637 13.1765 37.877 13.1888 37.5271 13.0048C37.1773 12.8209 36.8888 12.4898 36.6555 12.0054C36.4223 11.5271 36.3425 11.0918 36.4162 10.7055C36.4898 10.3192 36.7353 10.0188 37.1589 9.81645C37.5824 9.61412 37.9691 9.60185 38.3189 9.7858C38.6688 9.96974 38.9573 10.3008 39.1905 10.7852C39.4238 11.2635 39.5036 11.6988 39.4299 12.0851C39.3562 12.4714 39.1046 12.7657 38.6872 12.9742ZM37.1098 10.8711C37.1036 11.1041 37.1773 11.3738 37.3246 11.6804C37.4719 11.987 37.6376 12.2077 37.8279 12.3487C38.012 12.4898 38.2084 12.5082 38.4171 12.4101C38.6197 12.312 38.724 12.1464 38.7302 11.9134C38.7363 11.6804 38.6627 11.4106 38.5153 11.1041C38.368 10.7975 38.2023 10.5768 38.012 10.4357C37.8279 10.2947 37.6315 10.2763 37.4228 10.3744C37.2202 10.4725 37.1159 10.6381 37.1098 10.8711Z" fill="white"/>
<path d="M41.124 9.7061C41.167 9.56508 41.167 9.43632 41.1302 9.33208C41.0934 9.22785 41.0258 9.14814 40.9338 9.09909C40.8356 9.05003 40.7374 9.0439 40.6269 9.08682C40.4243 9.15427 40.2831 9.36274 40.2034 9.71836L39.5098 9.57734C39.5773 9.29529 39.6816 9.0623 39.8228 8.87835C39.964 8.69441 40.1665 8.55952 40.4489 8.46755C40.7251 8.36944 41.0013 8.37557 41.2714 8.47981C41.5414 8.58404 41.7317 8.78638 41.836 9.09295C41.8913 9.2585 41.9036 9.43018 41.8729 9.61413C41.8422 9.79194 41.7501 10.0433 41.6028 10.356L41.2284 11.1593L42.4989 10.7239L42.7199 11.3677L40.455 12.1464L40.2709 11.613L40.8847 10.3254C40.9951 10.0495 41.0811 9.84712 41.124 9.7061Z" fill="white"/>
<path d="M44.1867 8.87222C44.2419 8.73733 44.2603 8.60857 44.2358 8.49821C44.2112 8.38784 44.156 8.302 44.0639 8.24682C43.9719 8.19163 43.8737 8.17324 43.757 8.19776C43.5483 8.24682 43.3826 8.43689 43.2599 8.77412L42.5908 8.55339C42.6952 8.27747 42.8241 8.06287 42.9775 7.89732C43.1371 7.73177 43.3581 7.62141 43.6465 7.55396C43.935 7.49265 44.2051 7.5233 44.4629 7.6582C44.7207 7.79309 44.8803 8.01382 44.9539 8.32652C44.9908 8.49821 44.9846 8.66989 44.9294 8.8477C44.8741 9.02551 44.7637 9.25851 44.5795 9.55282L44.1192 10.307L45.4266 10.0188L45.5739 10.681L43.2353 11.196L43.1125 10.6442L43.8675 9.43632C44.0271 9.20332 44.1314 9.01325 44.1867 8.87222Z" fill="white"/>
<path d="M77.5524 50.4803C78.0236 50.4803 78.4056 50.0987 78.4056 49.628C78.4056 49.1573 78.0236 48.7758 77.5524 48.7758C77.0812 48.7758 76.6992 49.1573 76.6992 49.628C76.6992 50.0987 77.0812 50.4803 77.5524 50.4803Z" fill="white"/>
<path d="M27.7438 57.9239C28.215 57.9239 28.597 57.5423 28.597 57.0716C28.597 56.6009 28.215 56.2194 27.7438 56.2194C27.2726 56.2194 26.8906 56.6009 26.8906 57.0716C26.8906 57.5423 27.2726 57.9239 27.7438 57.9239Z" fill="white"/>
<path d="M74.4225 42.7547C74.1708 42.5891 73.9314 42.3806 73.7105 42.1476C72.9739 45.8204 71.378 49.1866 69.1377 52.0316C69.2973 52.3933 69.506 52.6202 69.7822 52.6938C72.0471 49.8426 73.6859 46.4826 74.5023 42.8098C74.4777 42.7914 74.447 42.7731 74.4225 42.7547Z" fill="white"/>
<path d="M44.2356 49.021C46.0954 48.5612 47.5255 48.8432 48.5322 49.8733C49.5388 50.9034 50.1342 52.3259 50.3244 54.1408C50.5147 55.9557 50.2999 57.8687 49.6861 59.8798C49.0723 61.891 48.0657 63.712 46.6724 65.3368C45.279 66.9617 43.5113 68.0469 41.3692 68.5743C41.3016 68.5926 41.228 68.6049 41.1543 68.6172H41.1421C41.1175 68.6417 41.0684 68.6478 41.007 68.6356C40.2521 68.7214 39.6076 68.6233 39.0613 68.3413C38.515 68.0592 38.0792 67.7281 37.7539 67.348C37.6803 67.2437 37.668 67.1395 37.7232 67.0414C37.7785 66.9433 37.8705 66.9004 37.9994 66.9126C38.2511 66.9555 38.5887 66.931 39.0061 66.839C38.9569 66.2872 39.0429 65.1652 39.2516 63.4729C39.4603 61.7806 39.7426 59.9228 40.1047 57.8994C40.4669 55.876 40.8536 54.0856 41.271 52.5344C40.3625 53.2395 39.5585 53.9691 38.8465 54.7172C38.1345 55.4652 37.6005 56.0722 37.2322 56.5443C37.1217 56.6608 36.9928 56.7037 36.8516 56.6731C36.7105 56.6363 36.6245 56.5382 36.5938 56.3849C36.4711 55.8147 36.5325 55.0789 36.7718 54.1776C37.0174 53.2701 37.6864 52.3443 38.7851 51.3939C39.8776 50.4435 41.6945 49.6526 44.2356 49.021ZM41.3692 66.2566C43.008 65.7476 44.567 64.4723 46.034 62.4183C47.5071 60.3704 48.4708 58.2366 48.9188 56.0232C49.3731 53.8097 48.9004 52.2033 47.501 51.2038C46.2243 50.5294 44.8923 50.5294 43.499 51.1977C43.7507 51.5533 43.8612 51.9089 43.8243 52.2646C43.585 53.5031 43.3333 54.6865 43.0694 55.7963C42.7748 57.0532 42.4801 58.4819 42.1794 60.0822C41.8848 61.6825 41.6147 63.7365 41.3692 66.2566Z" fill="white"/>
<path d="M37.7363 67.3357C37.7363 67.3418 37.7363 67.3541 37.7363 67.3602C37.7425 67.3602 37.7486 67.3602 37.7609 67.3602C37.7486 67.3541 37.7425 67.3418 37.7363 67.3357Z" fill="#60B600"/>
<path d="M38.3563 66.7348C38.3685 66.1032 38.4545 65.159 38.6079 63.9021C38.8166 62.2098 39.099 60.3519 39.4611 58.3286C39.725 56.8509 40.0074 55.4958 40.2959 54.2695C40.1301 54.4106 39.9705 54.5577 39.811 54.6987C39.4611 56.0906 39.1296 57.6541 38.8227 59.3893C38.4606 61.4127 38.1783 63.2705 37.9696 64.9628C37.8836 65.6495 37.8223 66.232 37.7793 66.7348C37.7916 66.7348 37.7977 66.7348 37.81 66.7348C37.9634 66.7593 38.1414 66.7593 38.3563 66.7348Z" fill="#60B600"/>
<path d="M56.5735 56.6669C56.5735 56.6669 56.1991 60.3887 53.9648 63.3625C53.9648 63.3625 56.3832 60.9467 57.132 56.483L56.5735 56.6669Z" fill="#60B600"/>
<path d="M62.7113 55.735C62.7788 55.7166 62.8402 55.735 62.8893 55.7779C62.9384 55.8269 62.9568 55.8821 62.9384 55.9557C62.8156 56.5014 62.564 57.3966 62.1834 58.6351C61.8029 59.8737 61.3364 61.0693 60.7962 62.222C60.2561 63.3748 59.6914 64.0247 59.1144 64.1719C58.1876 64.3987 57.5677 64.1596 57.2424 63.4483C56.917 62.7371 56.7882 61.8051 56.8495 60.6524C56.4444 61.6702 55.9288 62.7064 55.3089 63.761C54.689 64.8157 54.0506 65.4288 53.4 65.5882C52.2706 65.8703 51.5341 65.4962 51.1903 64.4723C50.8466 63.4483 50.8159 62.1853 51.0921 60.6892C51.3683 59.1931 51.8962 57.789 52.6757 56.483C53.4552 55.177 54.4066 54.3799 55.536 54.0979C56.1007 53.9568 56.5795 53.9998 56.9723 54.2266C57.3651 54.4535 57.6843 54.7355 57.9237 55.0666C58.1446 54.386 58.3595 53.8281 58.562 53.3989C58.7646 52.9635 58.9303 52.7306 59.0592 52.6999C59.3047 52.6386 59.5441 52.7183 59.7896 52.939C60.029 53.1598 60.2254 53.4234 60.3604 53.7361C60.5016 54.0488 60.5507 54.3431 60.5078 54.6129C60.4771 54.7601 60.4157 55.0544 60.3175 55.4958C60.1333 56.2377 59.9369 57.1329 59.716 58.1753C59.495 59.2176 59.3538 60.1435 59.2924 60.9528C59.2311 61.7622 59.3661 62.1239 59.6975 62.0442C60.072 61.9523 60.4648 61.4556 60.876 60.5604C61.2873 59.6652 61.6433 58.7516 61.9563 57.8135C62.2632 56.8816 62.4596 56.2377 62.5394 55.8944C62.5762 55.8085 62.6315 55.7595 62.7113 55.735ZM57.6843 55.9128C57.4695 55.8637 57.2055 55.8821 56.8864 55.9618C56.1989 56.1335 55.5913 56.6608 55.0757 57.5437C54.5601 58.4267 54.155 59.3832 53.8665 60.4133C53.578 61.4434 53.4307 62.3385 53.4307 63.0927C53.4246 63.8469 53.6026 64.178 53.9524 64.0921C54.2716 64.0124 54.6215 63.6629 54.9897 63.0498C55.358 62.4305 55.714 61.7499 56.0393 60.9958C56.3708 60.2416 56.7452 59.2912 57.1626 58.1385C57.3099 57.3598 57.4817 56.6179 57.6843 55.9128Z" fill="white"/>
<path d="M59.1147 64.3558C59.0349 64.3742 58.9613 64.3926 58.8876 64.4048C58.7526 64.4968 58.6175 64.5642 58.4764 64.5949C57.5495 64.8218 56.9296 64.5826 56.6043 63.8714C56.4017 63.4177 56.2728 62.8781 56.2237 62.2466C56.0335 62.639 55.8186 63.0375 55.5977 63.4422C55.6529 64.0185 55.7757 64.5152 55.9659 64.9383C56.2912 65.6495 56.9112 65.8886 57.838 65.6618C58.3045 65.5453 58.7587 65.1038 59.1945 64.3374C59.1699 64.3374 59.1393 64.3496 59.1147 64.3558Z" fill="#60B600"/>
<path d="M60.8696 57.09C60.4706 57.5192 60.1883 58.1079 60.0287 58.8559C59.82 59.8308 59.8323 60.7566 60.0655 61.6457C60.2803 61.4556 60.5074 61.1368 60.7345 60.6953C60.4768 59.7756 60.4522 58.8068 60.6732 57.7951C60.7161 57.5376 60.7898 57.3046 60.8696 57.09Z" fill="#60B600"/>
<path d="M66.7189 56.6915C66.8785 56.6915 67.0933 56.6608 67.3818 56.5934C67.4002 55.6798 67.3143 54.8459 67.1179 54.0979C67.0627 53.9139 67.0013 53.73 66.9338 53.5583C66.7005 52.9636 66.3875 52.5282 66.0008 52.2646C65.9455 52.24 65.8903 52.2278 65.8289 52.2155C65.5527 52.4792 65.3563 52.8348 65.252 53.2885C65.6939 53.3989 66.056 53.8649 66.3384 54.6865C66.5409 55.2935 66.6698 55.968 66.7189 56.6915Z" fill="#60B600"/>
<path d="M77.2032 31.2153C77.2891 31.203 77.3566 31.2214 77.4057 31.2766C77.4548 31.3318 77.4671 31.3992 77.4487 31.4789C77.2461 32.1779 76.7797 33.3551 76.0492 35.0168C75.3188 36.6784 74.3552 38.3032 73.1583 39.8974C71.9614 41.4916 70.5619 42.4174 68.9538 42.675C67.4929 42.9079 66.5722 42.3071 66.1917 40.8723C65.8111 39.4375 65.848 37.7207 66.2838 35.728C66.7257 33.7353 67.4807 31.902 68.5548 30.2281C69.6289 28.5542 70.8811 27.5977 72.3235 27.3708C73.545 27.1746 74.2999 27.4689 74.5945 28.2476C74.8892 29.0263 74.8462 30.0012 74.4595 31.1601C74.079 32.3189 73.4468 33.4287 72.569 34.4956C71.6913 35.5625 70.6724 36.3228 69.5185 36.7765C69.3343 37.7391 69.2852 38.5424 69.365 39.1739C69.4448 39.8116 69.7026 40.0936 70.1445 40.02C71.5317 39.7993 72.6979 39.0574 73.6616 37.7943C74.6191 36.5312 75.3679 35.262 75.8958 33.9805C76.4298 32.6991 76.7551 31.8407 76.8779 31.4053C76.9086 31.3134 76.9699 31.2582 77.0681 31.2398L77.2032 31.2153ZM73.0416 30.13C72.391 30.2342 71.7588 30.8964 71.1389 32.1104C70.5189 33.3245 70.034 34.6305 69.6965 36.0223C70.6847 35.5134 71.501 34.7838 72.1455 33.8395C72.79 32.8891 73.2012 32.0185 73.3915 31.2214C73.5695 30.4243 73.459 30.0625 73.0416 30.13Z" fill="white"/>
</g>
<defs>
<clipPath id="clip0_5595_15787">
<rect width="102.559" height="75" fill="white"/>
</clipPath>
</defs>
</svg>
